<?xml version="1.0" encoding="UTF-8"?>
<svg xmlns="http://www.w3.org/2000/svg" width="80" height="96" viewBox="0 0 80 96">
<rect width="80" height="96" fill="#111114"/>
<g fill="#ffffff" opacity="0.04">
<!-- Row 1: cross, starburst, lozenge, star -->
<g transform="translate(4,4) scale(0.022)"><path d="M187.34,533.68c34.97-95.98,97.51-179.24,179.6-239.13l7.74-5.65h-120.65c-.12-96.06,9.17-191.91,27.76-286.12l.55-2.79H92.34l.55,2.79c18.58,94.21,27.88,190.06,27.76,286.12H0l7.74,5.65c82.09,59.88,144.63,143.15,179.6,239.13Z"/></g>
<g transform="translate(24,4) scale(0.018)"><polygon points="291.82 0 243.4 96.66 194.99 0 187.51 107.69 105.53 36.78 140.14 139.11 37.06 104.76 108.48 186.15 0 193.57 97.36 241.63 0 289.69 108.48 297.11 37.06 378.5 140.14 344.15 105.53 446.47 187.51 375.57 194.99 483.25 243.4 386.6 291.82 483.25 299.29 375.57 381.28 446.47 346.67 344.15 449.75 378.5 378.33 297.11 486.81 289.69 389.45 241.63 486.81 193.57 378.33 186.15 449.75 104.76 346.67 139.11 381.28 36.78 299.29 107.69 291.82 0"/></g>
<g transform="translate(44,6) scale(0.015)"><path d="M509.73,188.62l-233.49,57.37c-8.11,1.99-16.58,1.99-24.68,0L18.08,188.62c-10.62-2.61-18.08-12.13-18.08-23.05v-83.65c0-10.93,7.46-20.45,18.08-23.06L251.56,1.5c8.1-1.99,16.57-1.99,24.68,0l233.49,57.37c10.62,2.61,18.08,12.13,18.08,23.06v83.65c0,10.93-7.46,20.45-18.08,23.05"/></g>
<g transform="translate(62,4) scale(0.012)"><polygon points="371.87 0 305.86 150.87 168.76 59.64 194.79 222.26 30.13 219.63 139.95 342.35 0 429.16 158.73 473.03 87.94 621.73 245.2 572.81 266.03 736.17 371.87 610.01 477.72 736.17 498.55 572.81 655.81 621.73 585.01 473.03 743.74 429.16 603.8 342.35 713.62 219.63 548.95 222.26 574.99 59.64 437.89 150.87 371.87 0"/></g>
<!-- Row 2: bolt, ring, oval, cross -->
<g transform="translate(4,26) scale(0.014)"><polygon points="617.58 0 337.63 207.63 391.05 210.97 179.35 405.09 228.42 408.15 0 654.55 324.39 378.6 269.12 375.15 482.68 181.14 433.55 178.08 617.58 0"/></g>
<g transform="translate(24,24) scale(0.022)"><path d="M192.22,376.94C86.23,376.94,0,292.39,0,188.47S86.23,0,192.22,0s192.22,84.55,192.22,188.47-86.23,188.47-192.22,188.47ZM192.22,88.75c-57.05,0-103.47,44.74-103.47,99.72s46.42,99.72,103.47,99.72,103.47-44.73,103.47-99.72-46.41-99.72-103.47-99.72Z"/></g>
<g transform="translate(44,28) scale(0.009)"><path d="M447.96,241.45c247.4,0,447.96-54.05,447.96-120.73S695.36,0,447.96,0,0,54.05,0,120.73s200.56,120.73,447.96,120.73"/></g>
<g transform="translate(62,24) scale(0.022)"><path d="M187.34,533.68c34.97-95.98,97.51-179.24,179.6-239.13l7.74-5.65h-120.65c-.12-96.06,9.17-191.91,27.76-286.12l.55-2.79H92.34l.55,2.79c18.58,94.21,27.88,190.06,27.76,286.12H0l7.74,5.65c82.09,59.88,144.63,143.15,179.6,239.13Z"/></g>
<!-- Row 3 (offset): star, bolt, ring -->
<g transform="translate(14,46) scale(0.012)"><polygon points="371.87 0 305.86 150.87 168.76 59.64 194.79 222.26 30.13 219.63 139.95 342.35 0 429.16 158.73 473.03 87.94 621.73 245.2 572.81 266.03 736.17 371.87 610.01 477.72 736.17 498.55 572.81 655.81 621.73 585.01 473.03 743.74 429.16 603.8 342.35 713.62 219.63 548.95 222.26 574.99 59.64 437.89 150.87 371.87 0"/></g>
<g transform="translate(34,46) scale(0.014)"><polygon points="617.58 0 337.63 207.63 391.05 210.97 179.35 405.09 228.42 408.15 0 654.55 324.39 378.6 269.12 375.15 482.68 181.14 433.55 178.08 617.58 0"/></g>
<g transform="translate(54,44) scale(0.022)"><path d="M192.22,376.94C86.23,376.94,0,292.39,0,188.47S86.23,0,192.22,0s192.22,84.55,192.22,188.47-86.23,188.47-192.22,188.47ZM192.22,88.75c-57.05,0-103.47,44.74-103.47,99.72s46.42,99.72,103.47,99.72,103.47-44.73,103.47-99.72-46.41-99.72-103.47-99.72Z"/></g>
<!-- Row 4: lozenge, cross, oval, starburst -->
<g transform="translate(4,66) scale(0.015)"><path d="M509.73,188.62l-233.49,57.37c-8.11,1.99-16.58,1.99-24.68,0L18.08,188.62c-10.62-2.61-18.08-12.13-18.08-23.05v-83.65c0-10.93,7.46-20.45,18.08-23.06L251.56,1.5c8.1-1.99,16.57-1.99,24.68,0l233.49,57.37c10.62,2.61,18.08,12.13,18.08,23.06v83.65c0,10.93-7.46,20.45-18.08,23.05"/></g>
<g transform="translate(24,64) scale(0.022)"><path d="M187.34,533.68c34.97-95.98,97.51-179.24,179.6-239.13l7.74-5.65h-120.65c-.12-96.06,9.17-191.91,27.76-286.12l.55-2.79H92.34l.55,2.79c18.58,94.21,27.88,190.06,27.76,286.12H0l7.74,5.65c82.09,59.88,144.63,143.15,179.6,239.13Z"/></g>
<g transform="translate(44,68) scale(0.009)"><path d="M447.96,241.45c247.4,0,447.96-54.05,447.96-120.73S695.36,0,447.96,0,0,54.05,0,120.73s200.56,120.73,447.96,120.73"/></g>
<g transform="translate(62,66) scale(0.018)"><polygon points="291.82 0 243.4 96.66 194.99 0 187.51 107.69 105.53 36.78 140.14 139.11 37.06 104.76 108.48 186.15 0 193.57 97.36 241.63 0 289.69 108.48 297.11 37.06 378.5 140.14 344.15 105.53 446.47 187.51 375.57 194.99 483.25 243.4 386.6 291.82 483.25 299.29 375.57 381.28 446.47 346.67 344.15 449.75 378.5 378.33 297.11 486.81 289.69 389.45 241.63 486.81 193.57 378.33 186.15 449.75 104.76 346.67 139.11 381.28 36.78 299.29 107.69 291.82 0"/></g>
</g>
</svg>
