<svg xmlns="http://www.w3.org/2000/svg" width="360" height="400">
<defs>
<pattern id="pB" width="36" height="40" patternUnits="userSpaceOnUse">
<rect width="36" height="40" fill="#111114"/>
<g fill="#fff" fill-rule="evenodd" opacity="0.07">
<path d="M3.5 1.5h1v1l1-.8.4.6L4.5 3.5l1.4 1.2-.4.6-1-.8v1h-1v-1l-1 .8-.4-.6L3.5 3.5 2.1 2.3l.4-.6 1 .8z"/>
<path d="M13 2l.3 1 1-.3-.6.8 1 .3-1 .3.6.8-1-.3-.3 1-.3-1-1 .3.6-.8-1-.3 1-.3-.6-.8 1 .3z"/>
<ellipse cx="22.5" cy="3.2" rx="2.5" ry="1"/>
<path d="M31 2l.5 1.3 1.3-.6-.8 1 1.3.5-1.3.5.8 1-1.3-.6-.5 1.3-.5-1.3-1.3.6.8-1-1.3-.5 1.3-.5-.8-1 1.3.6z"/>
<path d="M5.2 11.5L3.5 14h1.2L3 16l3.5-2.8H5z"/>
<path d="M13 11.2a2 2 0 110 4 2 2 0 010-4zm0 .8a1.2 1.2 0 100 2.4 1.2 1.2 0 000-2.4z"/>
<ellipse cx="22.5" cy="13.2" rx="3" ry=".8"/>
<path d="M30.5 11.5h1v1l1-.8.4.6-1.4 1.2 1.4 1.2-.4.6-1-.8v1h-1v-1l-1 .8-.4-.6 1.4-1.2-1.4-1.2.4-.6 1 .8z"/>
<path d="M9 22l.5 1.3 1.3-.6-.8 1 1.3.5-1.3.5.8 1-1.3-.6-.5 1.3-.5-1.3-1.3.6.8-1-1.3-.5 1.3-.5-.8-1 1.3.6z"/>
<path d="M18.7 21.5L17 24h1.2L16.5 26l3.5-2.8H18.5z"/>
<path d="M27 21.2a2 2 0 110 4 2 2 0 010-4zm0 .8a1.2 1.2 0 100 2.4 1.2 1.2 0 000-2.4z"/>
<ellipse cx="4.5" cy="33.2" rx="2.5" ry="1"/>
<path d="M12.5 31.5h1v1l1-.8.4.6-1.4 1.2 1.4 1.2-.4.6-1-.8v1h-1v-1l-1 .8-.4-.6 1.4-1.2-1.4-1.2.4-.6 1 .8z"/>
<ellipse cx="22.5" cy="33.2" rx="3" ry=".8"/>
<path d="M31 32l.3 1 1-.3-.6.8 1 .3-1 .3.6.8-1-.3-.3 1-.3-1-1 .3.6-.8-1-.3 1-.3-.6-.8 1 .3z"/>
</g>
</pattern>
</defs>
<rect width="360" height="400" fill="url(#pB)"/>
</svg>
